<?xml version="1.0" encoding="UTF-8"?>
<svg width="150px" height="30px" viewBox="0 0 150 30" version="1.1" xmlns="http://www.w3.org/2000/svg" xmlns:xlink="http://www.w3.org/1999/xlink">
    <!-- Generator: Sketch 46.1 (44463) - http://www.bohemiancoding.com/sketch -->
    <title>Page 1</title>
    <desc>Created with Sketch.</desc>
    <defs></defs>
    <g id="Page-1" stroke="none" stroke-width="1" fill="none" fill-rule="evenodd">
        <g>
            <path d="M46.9942217,10.480967 L57.4475236,28.4144575 C57.6810142,28.8283726 58.1034198,29.0816745 58.5597877,29.0816745 L60.1878538,29.0816745 C61.1925708,29.0816745 61.8137972,27.92625 61.3001179,27.0149292 L46.9942217,1.65856132 C46.4925708,0.768466981 45.2727594,0.768466981 44.7704009,1.65856132 L30.4645047,27.0149292 C29.9508255,27.92625 30.5720519,29.0816745 31.5767689,29.0816745 L33.2048349,29.0816745 C33.6612028,29.0816745 34.0836085,28.8283726 34.3170991,28.4144575 L44.7704009,10.480967 C45.2727594,9.59158019 46.4925708,9.59158019 46.9942217,10.480967" id="Fill-1" fill="#F36C33"></path>
            <path d="M46.9942217,25.3757547 L48.6088443,28.4146698 C48.8423349,28.8278774 49.2647406,29.0818868 49.7204009,29.0818868 L51.3491745,29.0818868 C52.353184,29.0818868 52.9751179,27.9264623 52.4607311,27.0151415 L46.9942217,17.325283 C46.4925708,16.4358962 45.2727594,16.4358962 44.7704009,17.325283 L39.3038915,27.0151415 C38.7895047,27.9264623 39.4114387,29.0818868 40.4154481,29.0818868 L42.0442217,29.0818868 C42.4998821,29.0818868 42.9222877,28.8278774 43.1557783,28.4146698 L44.7704009,25.3757547 C45.2727594,24.4863679 46.4925708,24.4863679 46.9942217,25.3757547" id="Fill-3" fill="#F36C33"></path>
            <path d="M0,1.71403302 C0,1.35247642 0.292924528,1.05955189 0.653773585,1.05955189 L16.1900943,1.05955189 C20.6617925,1.05955189 27.2150943,2.02464623 27.2150943,8.89209906 C27.2150943,14.3628538 22.484434,16.2074292 19.0959906,16.55625 C18.7867925,16.5873821 18.6346698,16.9425708 18.8193396,17.1923349 L26.8662736,28.0666274 C27.1860849,28.4982311 26.8783019,29.1102594 26.3412736,29.1102594 L23.7700472,29.1102594 C23.5613208,29.1102594 23.3646226,29.0097877 23.2415094,28.840684 L14.6129717,16.9560142 C14.4898585,16.7862028 14.2931604,16.6864387 14.084434,16.6864387 L4.04575472,16.6864387 C3.68490566,16.6864387 3.39198113,16.9793632 3.39198113,17.3409198 L3.39198113,28.4557783 C3.39198113,28.8173349 3.0990566,29.1102594 2.73820755,29.1102594 L0.653773585,29.1102594 C0.292924528,29.1102594 0,28.8173349 0,28.4557783 L0,1.71403302 Z M3.39198113,13.0220519 C3.39198113,13.3836085 3.68490566,13.676533 4.04575472,13.676533 L15.4188679,13.676533 C20.3150943,13.676533 23.9766509,12.9817217 23.9766509,8.85318396 C23.9766509,4.76356132 20.3150943,4.06875 15.4188679,4.06875 L4.04575472,4.06875 C3.68490566,4.06875 3.39198113,4.36167453 3.39198113,4.72323113 L3.39198113,13.0220519 Z" id="Fill-5" fill="#5C5B5E"></path>
            <path d="M66.7751179,1.0596934 L67.1904481,1.0596934 C68.0126179,1.0596934 68.6784198,1.72691038 68.6784198,2.54978774 L68.6784198,24.6111085 C68.6784198,25.4339858 69.3449292,26.1004953 70.1670991,26.1004953 L88.5456368,26.1004953 C89.3678066,26.1004953 90.034316,26.7677123 90.034316,27.5905896 L90.034316,27.6210142 C90.034316,28.4438915 89.3678066,29.1104009 88.5456368,29.1104009 L66.7751179,29.1104009 C65.9529481,29.1104009 65.2864387,28.4438915 65.2864387,27.6210142 L65.2864387,2.54978774 C65.2864387,1.72691038 65.9529481,1.0596934 66.7751179,1.0596934" id="Fill-7" fill="#5C5B5E"></path>
            <path d="M95.9700708,1.0596934 L96.3854009,1.0596934 C97.2075708,1.0596934 97.8733726,1.72691038 97.8733726,2.54978774 L97.8733726,24.6111085 C97.8733726,25.4339858 98.5398821,26.1004953 99.3620519,26.1004953 L118.512524,26.1004953 C119.333986,26.1004953 120.000495,26.7677123 120.000495,27.5905896 L120.000495,27.6210142 C120.000495,28.4438915 119.333986,29.1104009 118.512524,29.1104009 L95.9700708,29.1104009 C95.1479009,29.1104009 94.4813915,28.4438915 94.4813915,27.6210142 L94.4813915,2.54978774 C94.4813915,1.72691038 95.1479009,1.0596934 95.9700708,1.0596934" id="Fill-9" fill="#5C5B5E"></path>
            <path d="M125.46184,17.3460142 L113.50217,3.52478774 C112.667264,2.56040094 113.35217,1.0596934 114.62717,1.0596934 L115.1175,1.0596934 C115.551934,1.0596934 115.965142,1.25002358 116.24816,1.58044811 L126.390142,13.4346934 C126.984481,14.1295047 128.057123,14.1295047 128.651462,13.4346934 L138.794151,1.58044811 C139.07717,1.25002358 139.490377,1.0596934 139.924811,1.0596934 L140.415142,1.0596934 C141.690142,1.0596934 142.375047,2.56040094 141.540142,3.52478774 L129.580472,17.3460142 C129.346274,17.6177123 129.216792,17.9629953 129.216792,18.3217217 L129.216792,27.6203066 C129.216792,28.4438915 128.550991,29.1096934 127.728821,29.1096934 L127.313491,29.1096934 C126.491321,29.1096934 125.825519,28.4438915 125.825519,27.6203066 L125.825519,18.3217217 C125.825519,17.9629953 125.696038,17.6177123 125.46184,17.3460142" id="Fill-11" fill="#5C5B5E"></path>
            <path d="M146.235283,1.08941038 L147.478443,1.08941038 C147.864764,1.08941038 148.219245,1.22738208 148.219245,1.70639151 C148.219245,1.94978774 148.069245,2.19318396 147.772075,2.2596934 L147.772075,2.26676887 C148.094717,2.31771226 148.161934,2.52502358 148.178208,2.90002358 C148.184575,3.04365566 148.203679,3.3217217 148.25816,3.37266509 L148.002028,3.37266509 C147.960991,3.32455189 147.944717,3.15544811 147.941887,2.90639151 C147.935519,2.50308962 147.781981,2.36865566 147.388585,2.36865566 L146.471604,2.36865566 L146.471604,3.37266509 L146.235283,3.37266509 L146.235283,1.08941038 Z M146.471604,2.15143868 L147.472075,2.15143868 C147.731038,2.15143868 147.963821,2.05521226 147.963821,1.70639151 C147.963821,1.37101415 147.711934,1.30733491 147.494009,1.30733491 L146.471604,1.30733491 L146.471604,2.15143868 Z" id="Fill-13" fill="#5C5B5E"></path>
            <path d="M147.177453,4.3379717 C145.982406,4.3379717 145.010236,3.36509434 145.010236,2.16933962 C145.010236,0.972877358 145.982406,-7.10542736e-15 147.177453,-7.10542736e-15 C148.3725,-7.10542736e-15 149.34467,0.972877358 149.34467,2.16933962 C149.34467,3.36509434 148.3725,4.3379717 147.177453,4.3379717 M147.177453,0.228537736 C146.108349,0.228537736 145.238774,1.09882075 145.238774,2.16933962 C145.238774,3.23915094 146.108349,4.10943396 147.177453,4.10943396 C148.246557,4.10943396 149.116132,3.23915094 149.116132,2.16933962 C149.116132,1.09882075 148.246557,0.228537736 147.177453,0.228537736" id="Fill-15" fill="#5C5B5E"></path>
        </g>
    </g>
</svg>